<?xml version="1.0" standalone="no"?>
<!DOCTYPE svg PUBLIC "-//W3C//DTD SVG 20010904//EN"
 "http://www.w3.org/TR/2001/REC-SVG-20010904/DTD/svg10.dtd">
<svg version="1.0" xmlns="http://www.w3.org/2000/svg"
 width="400.000000pt" height="152.000000pt" viewBox="0 0 400.000000 152.000000"
 preserveAspectRatio="xMidYMid meet">
<metadata>
Created by potrace 1.15, written by Peter Selinger 2001-2017
</metadata>
<g transform="translate(0.000000,152.000000) scale(0.100000,-0.100000)"
fill="#000000" stroke="none">
<path d="M210 1498 c-76 -29 -160 -114 -188 -191 -21 -56 -22 -70 -22 -547 0
-477 1 -491 22 -547 29 -79 112 -162 191 -191 l58 -22 1729 0 1729 0 58 22
c79 29 162 112 191 191 21 56 22 70 22 547 0 477 -1 491 -22 547 -29 79 -112
162 -191 191 l-58 22 -1732 -1 -1732 0 -55 -21z m448 -248 c16 -26 47 -26 65
1 15 20 18 19 203 -88 l189 -109 -3 -36 c-3 -29 1 -39 18 -48 11 -6 25 -8 30
-5 6 4 10 -75 10 -219 0 -214 -1 -226 -19 -226 -27 0 -44 -26 -38 -58 6 -28 1
-31 -175 -133 -100 -57 -185 -106 -191 -108 -5 -2 -14 4 -19 13 -12 22 -64 21
-77 -1 -8 -14 -14 -16 -28 -7 -10 5 -95 55 -190 109 -167 96 -172 99 -166 127
6 32 -11 58 -38 58 -18 0 -19 12 -19 226 0 144 4 223 10 219 5 -3 19 -1 30 5
17 9 21 19 18 48 l-3 36 185 108 c102 59 187 108 190 108 3 0 11 -9 18 -20z
m1221 -164 c8 -9 11 -89 9 -271 -3 -233 -5 -259 -20 -269 -13 -8 -23 -8 -35 0
-16 10 -18 36 -21 269 -2 182 1 262 9 271 15 18 43 18 58 0z m1109 -75 c3 -60
3 -61 32 -61 34 0 53 -26 39 -52 -6 -11 -21 -18 -39 -18 l-30 0 -2 -161 c-3
-141 -5 -163 -20 -173 -13 -8 -23 -8 -35 0 -16 10 -18 32 -21 173 l-2 161 -24
0 c-56 0 -58 62 -2 68 25 3 26 6 26 67 0 73 18 95 55 71 16 -11 21 -26 23 -75z
m322 -71 c32 -32 11 -60 -44 -60 -74 0 -87 -28 -95 -210 l-6 -125 -27 -3 c-22
-3 -30 2 -38 23 -13 35 -13 341 0 366 13 23 43 25 60 4 11 -13 15 -14 29 -2
37 32 93 35 121 7z m320 -8 c35 -26 40 -27 40 -7 0 16 43 31 59 20 7 -4 11
-75 11 -201 0 -171 -2 -195 -16 -201 -39 -15 -49 9 -54 133 -3 66 -11 129 -18
141 -34 60 -124 83 -192 48 -41 -21 -75 -93 -66 -140 10 -50 47 -98 89 -114
33 -12 47 -12 89 -1 47 11 53 11 64 -5 52 -70 -138 -103 -228 -39 -77 54 -112
170 -78 259 16 41 67 94 115 117 54 25 143 21 185 -10z m-2039 3 c52 -19 109
-71 109 -100 0 -16 -31 -39 -146 -105 l-146 -84 26 -23 c30 -25 84 -38 121
-29 44 11 94 64 101 108 7 38 26 68 44 68 24 0 41 -34 35 -69 -28 -150 -180
-227 -314 -159 -69 36 -104 93 -109 177 -5 80 17 133 73 178 62 50 133 63 206
38z m614 4 c50 -13 125 -72 125 -99 0 -23 -21 -38 -173 -125 -126 -72 -130
-78 -66 -111 82 -42 199 28 199 118 0 39 36 57 61 32 14 -16 16 -27 9 -63 -36
-195 -311 -237 -400 -61 -46 91 -32 179 39 250 64 64 121 80 206 59z m530 -23
c55 -33 91 -87 75 -116 -15 -29 -45 -25 -70 10 -72 101 -233 66 -256 -55 -18
-97 75 -182 175 -160 16 3 48 24 71 46 34 33 44 38 60 29 34 -18 24 -54 -26
-99 -81 -71 -191 -74 -278 -7 -82 62 -101 201 -40 288 43 63 122 101 192 94
31 -3 71 -15 97 -30z"/>
<path d="M677 1204 c-4 -4 -7 -42 -7 -84 l0 -77 -52 -12 c-63 -14 -129 -51
-158 -88 l-21 -28 -70 38 c-57 31 -70 36 -75 23 -8 -22 0 -31 62 -66 43 -24
54 -35 49 -48 -28 -71 -28 -172 -1 -242 5 -11 -11 -25 -54 -48 -41 -23 -60
-39 -60 -53 0 -26 16 -24 84 15 l58 34 29 -32 c35 -41 113 -83 167 -92 l41 -6
3 -77 c2 -60 6 -76 18 -76 12 0 16 16 18 77 l3 77 32 7 c51 11 109 43 154 86
l41 41 66 -37 c37 -20 71 -34 76 -31 23 14 6 35 -55 70 -63 35 -65 37 -65 76
0 32 -5 41 -24 50 -32 15 -50 3 -79 -51 -32 -62 -92 -102 -159 -108 -44 -3
-62 1 -108 25 -30 16 -56 36 -58 44 -2 10 84 64 260 166 309 179 303 175 295
197 -6 15 -16 13 -80 -23 l-74 -41 -34 36 c-37 39 -105 77 -156 88 l-32 7 -3
81 c-3 75 -13 100 -31 82z m100 -289 c14 -9 21 -21 17 -25 -5 -5 -75 -47 -156
-94 l-148 -85 0 42 c0 108 98 195 208 184 30 -3 65 -13 79 -22z"/>
<path d="M1455 854 c-43 -22 -65 -54 -65 -96 0 -21 2 -38 4 -38 4 0 142 80
185 107 23 15 24 16 6 29 -25 19 -93 18 -130 -2z"/>
<path d="M2068 845 c-27 -18 -40 -37 -48 -66 -6 -23 -8 -45 -3 -50 8 -8 180
84 206 110 7 7 2 13 -17 21 -47 17 -99 12 -138 -15z"/>
</g>
</svg>
