<?xml version="1.0" standalone="no"?>
<!DOCTYPE svg PUBLIC "-//W3C//DTD SVG 20010904//EN"
 "http://www.w3.org/TR/2001/REC-SVG-20010904/DTD/svg10.dtd">
<svg version="1.0" xmlns="http://www.w3.org/2000/svg"
 width="1024.000000pt" height="1024.000000pt" viewBox="0 0 1024.000000 1024.000000"
 preserveAspectRatio="xMidYMid meet">

<g transform="translate(0.000000,1024.000000) scale(0.100000,-0.100000)"
fill="#000000" stroke="none">
<path d="M4910 10234 c-400 -19 -843 -92 -1208 -199 -1145 -335 -2140 -1072
-2807 -2080 -913 -1380 -1097 -3147 -488 -4695 344 -875 937 -1653 1688 -2213
743 -555 1580 -882 2515 -984 204 -22 766 -25 960 -5 984 101 1855 441 2610
1021 255 196 563 486 764 721 658 769 1070 1700 1195 2700 177 1413 -236 2824
-1144 3916 -584 700 -1354 1235 -2210 1536 -394 139 -783 223 -1205 262 -167
16 -533 27 -670 20z m524 -2119 c677 -79 1267 -366 1752 -849 223 -223 373
-419 515 -674 60 -107 69 -141 47 -160 -7 -5 -348 -204 -758 -442 -410 -238
-746 -434 -748 -435 -2 -2 2 -51 8 -110 37 -336 -85 -689 -325 -943 -191 -202
-402 -318 -670 -367 -135 -26 -377 -17 -505 18 -160 43 -298 110 -424 205 -50
38 -62 42 -82 34 -27 -13 -804 -464 -857 -498 -20 -13 -37 -32 -37 -42 0 -39
223 -283 370 -406 325 -272 731 -442 1159 -487 141 -15 429 -7 561 16 700 117
1284 550 1599 1186 147 296 221 610 234 994 l2 70 60 38 c33 22 195 117 360
213 347 201 332 198 352 73 23 -149 35 -426 24 -587 -43 -622 -237 -1150 -604
-1642 -134 -179 -404 -451 -579 -581 -410 -305 -850 -492 -1343 -570 -176 -27
-553 -38 -732 -19 -691 70 -1312 363 -1803 850 -599 596 -913 1384 -887 2230
27 851 399 1626 1053 2190 439 379 998 625 1574 694 160 19 524 20 684 1z"/>
<path d="M4875 7310 c-951 -107 -1715 -805 -1904 -1740 -48 -238 -53 -576 -12
-803 20 -115 31 -137 65 -137 12 0 204 106 426 235 352 205 405 239 403 258
-2 12 -6 87 -9 167 -5 113 -3 166 10 240 85 486 432 865 903 986 122 32 329
43 453 25 207 -31 422 -121 573 -242 27 -21 53 -39 58 -39 4 0 175 97 378 216
256 148 371 221 371 232 0 28 -168 166 -320 265 -250 161 -517 266 -815 318
-137 23 -447 34 -580 19z"/>
<path d="M6182 6075 l-642 -374 -241 140 c-133 77 -245 141 -248 142 -4 1
-134 -72 -289 -161 l-282 -164 0 -287 0 -287 -687 -399 c-379 -219 -693 -403
-700 -409 -8 -8 -2 -26 25 -73 l36 -63 41 24 c22 13 339 198 704 410 l664 386
201 -117 c111 -64 220 -127 242 -140 l41 -23 281 162 281 163 3 283 3 283 633
368 c348 203 638 373 644 379 7 7 0 29 -24 71 -18 33 -35 61 -38 60 -3 0 -294
-169 -648 -374z"/>
</g>
</svg>
